<svg width="202" height="52" viewBox="0 0 202 52" fill="none" xmlns="http://www.w3.org/2000/svg">
<path d="M14.5479 15.8087L17.6052 22.7819C17.7203 23.0443 17.9036 23.271 18.1361 23.4384C18.3687 23.6058 18.6418 23.7077 18.9272 23.7336L26.3751 24.4014C27.2178 24.524 27.5539 25.5575 26.9429 26.1526L21.3326 30.8658C20.8783 31.2474 20.6716 31.847 20.7965 32.4262L22.4274 40.0604C22.5705 40.8985 21.6915 41.539 20.9374 41.1416L14.4366 37.3347C14.1915 37.1907 13.9123 37.1148 13.628 37.1148C13.3437 37.1148 13.0645 37.1907 12.8194 37.3347L6.31865 41.1393C5.56682 41.5345 4.68552 40.8962 4.82862 40.0581L6.45948 32.4239C6.58214 31.8447 6.37771 31.2451 5.92343 30.8635L0.310814 26.1549C-0.29792 25.5621 0.0382467 24.5263 0.878663 24.4036L8.32657 23.7359C8.61191 23.71 8.88508 23.608 9.11759 23.4406C9.35011 23.2732 9.53346 23.0465 9.64852 22.7841L12.7058 15.811C13.0851 15.0478 14.1709 15.0478 14.5479 15.8087Z" fill="#FDD835"/>
<path d="M14.3269 23.1989L13.809 18.061C13.7885 17.7748 13.7295 17.2842 14.1883 17.2842C14.5517 17.2842 14.7493 18.0406 14.7493 18.0406L16.303 22.1654C16.889 23.7349 16.6482 24.2733 16.0826 24.5913C15.433 24.9547 14.4745 24.6708 14.3269 23.1989Z" fill="#FFFF8D"/>
<path d="M20.7321 30.4089L25.1886 26.9314C25.4089 26.7474 25.8064 26.4544 25.4884 26.1205C25.2363 25.857 24.5549 26.2363 24.5549 26.2363L20.6549 27.7604C19.492 28.1625 18.7197 28.7576 18.6515 29.5071C18.563 30.5065 19.4602 31.2765 20.7321 30.4089Z" fill="#F4B400"/>
<path d="M102.459 1.1295L108.513 14.9376C108.741 15.4572 109.104 15.9061 109.564 16.2376C110.024 16.569 110.565 16.7709 111.13 16.8221L125.878 18.1445C127.547 18.3874 128.213 20.4338 127.003 21.6122L115.893 30.9451C114.994 31.7007 114.585 32.8881 114.832 34.035L118.061 49.1519C118.345 50.8116 116.604 52.08 115.111 51.2929L102.238 43.7546C101.753 43.4696 101.2 43.3192 100.637 43.3192C100.074 43.3192 99.5214 43.4696 99.0359 43.7546L86.1634 51.2884C84.6746 52.071 82.9295 50.8071 83.2129 49.1474L86.4422 34.0305C86.6851 32.8836 86.2803 31.6962 85.3808 30.9406L74.2668 21.6167C73.0614 20.4428 73.7271 18.3918 75.3913 18.149L90.1394 16.8266C90.7044 16.7754 91.2453 16.5735 91.7057 16.2421C92.1662 15.9106 92.5292 15.4617 92.7571 14.9421L98.811 1.134C99.5622 -0.377248 101.712 -0.377248 102.459 1.1295Z" fill="#FDD835"/>
<path d="M102.021 15.7639L100.996 5.58999C100.955 5.02327 100.838 4.05176 101.747 4.05176C102.466 4.05176 102.858 5.54951 102.858 5.54951L105.934 13.7174C107.095 16.8254 106.618 17.8913 105.498 18.521C104.211 19.2407 102.313 18.6784 102.021 15.7639Z" fill="#FFFF8D"/>
<path d="M114.706 30.0404L123.531 23.1544C123.967 22.79 124.754 22.2098 124.124 21.5487C123.625 21.0269 122.276 21.778 122.276 21.778L114.553 24.796C112.25 25.5921 110.721 26.7705 110.586 28.2548C110.411 30.2338 112.187 31.7585 114.706 30.0404Z" fill="#F4B400"/>
<path d="M151.695 15.8087L154.753 22.7819C154.868 23.0443 155.051 23.271 155.284 23.4384C155.516 23.6058 155.789 23.7077 156.075 23.7336L163.523 24.4014C164.365 24.524 164.701 25.5575 164.09 26.1526L158.48 30.8658C158.026 31.2474 157.819 31.847 157.944 32.4262L159.575 40.0604C159.718 40.8985 158.839 41.539 158.085 41.1416L151.584 37.3347C151.339 37.1907 151.06 37.1148 150.775 37.1148C150.491 37.1148 150.212 37.1907 149.967 37.3347L143.466 41.1393C142.714 41.5345 141.833 40.8962 141.976 40.0581L143.607 32.4239C143.73 31.8447 143.525 31.2451 143.071 30.8635L137.458 26.1549C136.85 25.5621 137.186 24.5263 138.026 24.4036L145.474 23.7359C145.759 23.71 146.033 23.608 146.265 23.4406C146.498 23.2732 146.681 23.0465 146.796 22.7841L149.853 15.811C150.233 15.0478 151.318 15.0478 151.695 15.8087Z" fill="#FDD835"/>
<path d="M151.474 23.1989L150.956 18.061C150.936 17.7748 150.877 17.2842 151.336 17.2842C151.699 17.2842 151.897 18.0406 151.897 18.0406L153.45 22.1654C154.036 23.7349 153.796 24.2733 153.23 24.5913C152.58 24.9547 151.622 24.6708 151.474 23.1989Z" fill="#FFFF8D"/>
<path d="M157.882 30.4089L162.338 26.9314C162.558 26.7474 162.956 26.4544 162.638 26.1205C162.386 25.857 161.704 26.2363 161.704 26.2363L157.804 27.7604C156.641 28.1625 155.869 28.7576 155.801 29.5071C155.712 30.5065 156.61 31.2765 157.882 30.4089Z" fill="#F4B400"/>
<path d="M188.523 15.8087L191.58 22.7819C191.695 23.0443 191.878 23.271 192.111 23.4384C192.343 23.6058 192.616 23.7077 192.902 23.7336L200.35 24.4014C201.192 24.524 201.529 25.5575 200.918 26.1526L195.307 30.8658C194.853 31.2474 194.646 31.847 194.771 32.4262L196.402 40.0604C196.545 40.8985 195.666 41.539 194.912 41.1416L188.411 37.3347C188.166 37.1907 187.887 37.1148 187.603 37.1148C187.318 37.1148 187.039 37.1907 186.794 37.3347L180.293 41.1393C179.541 41.5345 178.66 40.8962 178.803 40.0581L180.434 32.4239C180.557 31.8447 180.352 31.2451 179.898 30.8635L174.285 26.1549C173.677 25.5621 174.013 24.5263 174.853 24.4036L182.301 23.7359C182.587 23.71 182.86 23.608 183.092 23.4406C183.325 23.2732 183.508 23.0465 183.623 22.7841L186.68 15.811C187.06 15.0478 188.145 15.0478 188.523 15.8087Z" fill="#FDD835"/>
<path d="M188.301 23.1989L187.784 18.061C187.763 17.7748 187.704 17.2842 188.163 17.2842C188.526 17.2842 188.724 18.0406 188.724 18.0406L190.278 22.1654C190.864 23.7349 190.623 24.2733 190.057 24.5913C189.408 24.9547 188.449 24.6708 188.301 23.1989Z" fill="#FFFF8D"/>
<path d="M194.708 30.4089L199.164 26.9314C199.385 26.7474 199.782 26.4544 199.464 26.1205C199.212 25.857 198.53 26.2363 198.53 26.2363L194.63 27.7604C193.468 28.1625 192.695 28.7576 192.627 29.5071C192.539 30.5065 193.436 31.2765 194.708 30.4089Z" fill="#F4B400"/>
<path d="M51.3751 15.8087L54.4324 22.7819C54.5474 23.0443 54.7308 23.271 54.9633 23.4384C55.1958 23.6058 55.469 23.7077 55.7543 23.7336L63.2022 24.4014C64.0449 24.524 64.3811 25.5575 63.7701 26.1526L58.1597 30.8658C57.7054 31.2474 57.4987 31.847 57.6237 32.4262L59.2545 40.0604C59.3976 40.8985 58.5186 41.539 57.7645 41.1416L51.2638 37.3347C51.0186 37.1907 50.7395 37.1148 50.4552 37.1148C50.1708 37.1148 49.8917 37.1907 49.6465 37.3347L43.1458 41.1393C42.394 41.5345 41.5127 40.8962 41.6558 40.0581L43.2866 32.4239C43.4093 31.8447 43.2049 31.2451 42.7506 30.8635L37.138 26.1549C36.5292 25.5621 36.8654 24.5263 37.7058 24.4036L45.1537 23.7359C45.4391 23.71 45.7122 23.608 45.9447 23.4406C46.1773 23.2732 46.3606 23.0465 46.4757 22.7841L49.533 15.811C49.9123 15.0478 50.998 15.0478 51.3751 15.8087Z" fill="#FDD835"/>
<path d="M51.153 23.1989L50.6351 18.061C50.6147 17.7748 50.5556 17.2842 51.0145 17.2842C51.3779 17.2842 51.5755 18.0406 51.5755 18.0406L53.1291 22.1654C53.7152 23.7349 53.4744 24.2733 52.9088 24.5913C52.2592 24.9547 51.3007 24.6708 51.153 23.1989Z" fill="#FFFF8D"/>
<path d="M57.5603 30.4089L62.0167 26.9314C62.2371 26.7474 62.6346 26.4544 62.3166 26.1205C62.0644 25.857 61.383 26.2363 61.383 26.2363L57.483 27.7604C56.3201 28.1625 55.5478 28.7576 55.4797 29.5071C55.3911 30.5065 56.2883 31.2765 57.5603 30.4089Z" fill="#F4B400"/>
</svg>
